<?xml version="1.0" standalone="no"?>
<!DOCTYPE svg PUBLIC "-//W3C//DTD SVG 20010904//EN"
 "http://www.w3.org/TR/2001/REC-SVG-20010904/DTD/svg10.dtd">
<svg version="1.0" xmlns="http://www.w3.org/2000/svg"
 width="270.000000pt" height="270.000000pt" viewBox="0 0 270.000000 270.000000"
 preserveAspectRatio="xMidYMid meet">
<metadata>
Created by potrace 1.14, written by Peter Selinger 2001-2017
</metadata>
<g transform="translate(0.000000,270.000000) scale(0.100000,-0.100000)"
fill="#000000" stroke="none">
<path d="M1464 2605 c-3 -8 -1 -29 5 -47 13 -42 23 -108 16 -108 -3 0 -23 9
-43 19 -20 10 -57 24 -82 31 -49 13 -203 17 -238 6 -28 -9 -28 -31 0 -54 58
-44 97 -95 103 -134 4 -21 5 -41 3 -43 -2 -3 -56 -7 -119 -10 -183 -8 -273
-27 -395 -84 -116 -55 -191 -105 -284 -191 -43 -40 -114 -143 -147 -212 -42
-87 -84 -218 -78 -239 6 -18 107 -66 465 -219 269 -115 330 -143 330 -150 0
-3 -20 -14 -43 -25 -23 -10 -112 -51 -197 -91 -85 -39 -208 -96 -272 -127
-126 -61 -120 -54 -167 -177 -46 -123 -50 -141 -38 -169 25 -57 64 -109 136
-182 148 -147 319 -239 551 -296 144 -36 354 -41 485 -13 240 52 434 149 599
300 80 73 138 138 179 198 l39 56 -22 18 c-12 10 -37 20 -56 24 -29 5 -38 14
-54 50 -42 91 -125 143 -241 152 -51 3 -79 0 -121 -16 -55 -21 -55 -21 -87 -1
-18 11 -31 25 -29 31 6 18 132 61 358 122 335 90 352 97 458 171 76 55 106
180 62 266 -28 54 -61 86 -115 110 -64 29 -161 21 -206 -17 -24 -21 -31 -17
-73 37 -40 52 -40 55 -4 73 12 6 29 23 37 37 12 22 12 31 2 57 -20 48 -56 57
-132 33 l-63 -21 -58 57 c-57 56 -58 58 -36 67 27 12 98 64 115 86 14 17 48
85 58 115 17 49 23 176 11 230 -3 11 -5 30 -5 43 -1 14 -10 26 -23 31 -20 8
-27 2 -54 -41 -17 -28 -45 -59 -63 -70 -32 -20 -145 -36 -154 -21 -3 4 -8 25
-11 46 -14 89 -97 196 -209 272 -55 38 -84 44 -93 20z"/>
</g>
</svg>
